<?xml version="1.0" encoding="UTF-8" standalone="no"?>
<svg
   sodipodi:docname="MOREmoji_cockatiel.svg"
   inkscape:version="1.3 (0e150ed6c4, 2023-07-21)"
   id="svg893"
   version="1.1"
   viewBox="0 0 140.54462 116.36391"
   height="116.36391mm"
   width="140.54462mm"
   xmlns:inkscape="http://www.inkscape.org/namespaces/inkscape"
   xmlns:sodipodi="http://sodipodi.sourceforge.net/DTD/sodipodi-0.dtd"
   xmlns="http://www.w3.org/2000/svg"
   xmlns:svg="http://www.w3.org/2000/svg"
   xmlns:rdf="http://www.w3.org/1999/02/22-rdf-syntax-ns#"
   xmlns:cc="http://creativecommons.org/ns#"
   xmlns:dc="http://purl.org/dc/elements/1.1/">
  <defs
     id="defs887">
    <linearGradient
       id="linearGradient2155"
       inkscape:swatch="solid">
      <stop
         id="stop2153"
         offset="0"
         style="stop-color:#99aab5;stop-opacity:1;" />
    </linearGradient>
    <clipPath
       clipPathUnits="userSpaceOnUse"
       id="clipPath1538-0">
      <path
         style="stroke-width:3.31679"
         id="path1540-7"
         d="m 156.69407,175.38205 c -0.0464,1.65508 -6.35497,2.7264 -18.54747,-11.93711 -9.70824,10.24887 -24.45799,10.554 -39.207739,4.71647 C 82.358241,161.59748 71.134237,145.19597 73.396287,121.806 74.6633,108.69142 56.056125,109.90868 56.543694,92.28991 56.911856,79.03935 68.195566,73.931489 77.684892,74.193519 c 15.721568,0.434501 22.620488,17.55575 26.706768,21.761442 21.53921,22.182669 52.4384,74.528199 52.30241,79.427089 z"
         fill="#77b255" />
    </clipPath>
    <clipPath
       clipPathUnits="userSpaceOnUse"
       id="clipPath1538-5">
      <path
         style="stroke-width:3.31679"
         id="path1540-6"
         d="m 156.69407,175.38205 c -0.0464,1.65508 -6.35497,2.7264 -18.54747,-11.93711 -9.70824,10.24887 -24.45799,10.554 -39.207739,4.71647 C 82.358241,161.59748 71.134237,145.19597 73.396287,121.806 74.6633,108.69142 56.056125,109.90868 56.543694,92.28991 56.911856,79.03935 68.195566,73.931489 77.684892,74.193519 c 15.721568,0.434501 22.620488,17.55575 26.706768,21.761442 21.53921,22.182669 52.4384,74.528199 52.30241,79.427089 z"
         fill="#77b255" />
    </clipPath>
    <clipPath
       id="clipPath1627"
       clipPathUnits="userSpaceOnUse">
      <circle
         transform="translate(0.00332,-0.00332)"
         style="fill:#f9f9f9;fill-opacity:1;fill-rule:evenodd;stroke-width:0.302001"
         id="circle1629"
         cx="77.775436"
         cy="91.53981"
         r="22.880037"
         clip-path="url(#clipPath1538-5)" />
    </clipPath>
    <clipPath
       id="clipPath2097"
       clipPathUnits="userSpaceOnUse">
      <path
         style="fill:#66757f;fill-opacity:1;stroke-width:3.31681"
         id="path2099"
         d="m 19.076491,259.16264 c -1.104496,1.23846 -6.612503,-1.99396 -6.448649,-21.06427 -14.0314284,1.6159 -25.488564,-7.62721 -32.97793,-21.57735 -8.417864,-15.68313 -6.392022,-35.46298 10.4432417,-51.93301 9.4384103,-9.23545 -5.5526787,-20.25806 6.2001143,-33.44582 8.8400585,-9.91718 20.753452,-6.58132 27.828403,-0.28351 11.721274,10.43429 5.928729,27.98673 6.331614,33.83499 2.11458,30.83753 -8.108613,90.80239 -11.376794,94.46897 z"
         fill="#77b255" />
    </clipPath>
  </defs>
  <sodipodi:namedview
     inkscape:window-maximized="1"
     inkscape:window-y="0"
     inkscape:window-x="0"
     inkscape:window-height="831"
     inkscape:window-width="1440"
     showguides="false"
     showgrid="false"
     inkscape:document-rotation="0"
     inkscape:current-layer="g4093"
     inkscape:document-units="mm"
     inkscape:cy="252.31944"
     inkscape:cx="256.73203"
     inkscape:zoom="1.2464358"
     inkscape:pageshadow="2"
     inkscape:pageopacity="0.0"
     borderopacity="1.0"
     bordercolor="#666666"
     pagecolor="#ffffff"
     id="base"
     inkscape:showpageshadow="2"
     inkscape:pagecheckerboard="0"
     inkscape:deskcolor="#d1d1d1" />
  <metadata
     id="metadata890">
    <rdf:RDF>
      <cc:Work
         rdf:about="">
        <dc:format>image/svg+xml</dc:format>
        <dc:type
           rdf:resource="http://purl.org/dc/dcmitype/StillImage" />
        <dc:title />
      </cc:Work>
    </rdf:RDF>
  </metadata>
  <g
     id="layer1"
     inkscape:groupmode="layer"
     inkscape:label="Layer 1"
     transform="translate(-43.251568,-70.386554)">
    <g
       inkscape:export-ydpi="110.5214"
       inkscape:export-xdpi="110.5214"
       inkscape:export-filename="F:\My Art\SVG &amp; SALES\MOREmoji\SET 3\png\cockatiel.png"
       transform="translate(-10.583333,6.4255952)"
       id="g4093">
      <path
         fill="#f4900c"
         d="m 67.559395,123.77599 c 1.724495,0.92246 7.781657,-2.87959 8.897987,-6.75103 1.11633,-3.87144 -2.08368,-4.31839 -5.881651,-2.53062 -3.797972,1.78775 -4.506137,8.48369 -3.016336,9.28165 z"
         id="path1462"
         style="stroke-width:2.04082" />
      <path
         fill="#77b255"
         d="m 189.00622,157.51628 c -4.26931,3.5396 -21.84611,8.00999 -30.79385,3.62634 -38.03583,28.10245 -88.290838,4.9935 -77.037612,-30.00505 3.572832,-11.11183 -13.029964,-9.45264 -12.598036,-25.06083 0.32615,-11.738467 10.322214,-16.263435 18.728666,-16.03131 13.927492,0.384916 11.040505,10.7762 26.686862,20.68813 17.87548,11.32408 27.8907,51.6266 75.01397,46.78272 z"
         id="path1466"
         style="fill:#99aab5;fill-opacity:1;stroke-width:2.93829"
         sodipodi:nodetypes="ccsccsc" />
      <path
         fill="#ffac33"
         d="m 73.263494,103.78002 c -5.214302,2.04082 -8.73064,6.89389 -8.763293,12.42452 -0.03265,5.50818 2.487763,9.02656 5.293894,8.25922 0.767349,-0.21021 -0.618369,-3.92246 1.7347,-8.92043 1.163269,-2.46328 2.659192,-2.75512 3.418378,-2.67961 0.761227,0.0734 0.904084,-10.09595 -1.683679,-9.0837 z"
         id="path1464"
         style="stroke-width:2.04082" />
      <path
         fill="#3b88c3"
         d="m 99.180427,127.30204 c 0,0 5.103813,17.00684 21.537683,27.58174 16.43385,10.57491 37.49427,6.2559 37.49427,6.2559 0,0 -16.69516,8.62934 -30.99288,7.59817 -16.62239,-1.19883 -37.481095,-17.58832 -28.039073,-41.43581 z"
         id="path1470"
         style="fill:#ccd6dd;fill-opacity:1;stroke-width:2.93829"
         sodipodi:nodetypes="cscsc" />
      <path
         sodipodi:nodetypes="csccc"
         fill="#bf6952"
         d="m 87.774484,74.327577 c 0,0 -30.719209,27.011903 -14.621594,43.786193 6.403407,6.67257 7.794976,-12.92846 7.794976,-12.92846 0,0 -0.125714,-23.461069 6.826617,-30.857734 z"
         id="path1867"
         style="fill:#ffdc5e;fill-opacity:1;stroke-width:4.59124" />
      <path
         style="fill:#ffdc5e;fill-opacity:1;stroke-width:4.59124"
         id="path1867-8"
         d="m 102.81556,70.600422 c 0,0 -38.105236,14.876298 -28.71556,36.144678 3.735064,8.46024 11.746674,-9.482744 11.746674,-9.482744 0,0 7.906018,-22.089189 16.968896,-26.661941 z"
         fill="#bf6952"
         sodipodi:nodetypes="csccc" />
      <path
         sodipodi:nodetypes="csccc"
         fill="#bf6952"
         d="m 113.7642,71.362444 c 0,0 -27.134279,6.210091 -28.201675,18.473632 -0.424602,4.878271 9.887411,-4.623346 9.887411,-4.623346 0,0 11.538984,-11.800935 18.314264,-13.850291 z"
         id="path1867-8-3"
         style="fill:#ffdc5e;fill-opacity:1;stroke-width:2.68992" />
      <path
         sodipodi:nodetypes="csccc"
         fill="#bf6952"
         d="m 108.82481,81.633197 c 0,0 -20.670542,-1.327396 -20.912819,10.442337 -0.09638,4.681826 7.419995,-1.838035 7.419995,-1.838035 0,0 8.355204,-8.445221 13.492824,-8.604308 z"
         id="path1867-8-2"
         style="fill:#ffdc5e;fill-opacity:1;stroke-width:2.32481" />
      <ellipse
         style="fill:#ffdc5e;fill-opacity:1;fill-rule:evenodd;stroke-width:0.349314"
         id="path1499"
         cx="12.464235"
         cy="137.38036"
         clip-path="url(#clipPath2097)"
         rx="24.840527"
         ry="28.194771"
         transform="matrix(0.67883498,-0.56918769,0.5722182,0.6762824,-3.9519084,15.277759)" />
      <circle
         style="fill:#f26522;fill-opacity:1;fill-rule:evenodd;stroke-width:0.310409"
         id="path1556"
         cx="88.130005"
         cy="117.23754"
         r="8.20366" />
      <path
         fill="#5c913b"
         d="m 87.364149,126.43027 c -2.321248,0 -4.433879,-0.55533 -5.80606,-1.32222 -0.728696,-0.40842 -0.987266,-1.33105 -0.581782,-2.05975 0.41136,-0.72869 1.333984,-0.98726 2.059742,-0.58178 1.953965,1.09599 7.069523,1.85113 10.618979,-1.24289 0.62586,-0.54946 1.58374,-0.48482 2.133201,0.14691 0.549461,0.6288 0.481877,1.58668 -0.146915,2.1332 -2.456407,2.14201 -5.515172,2.92653 -8.277165,2.92653 z"
         id="path1476"
         style="fill:#d14a15;fill-opacity:1;stroke-width:2.93829" />
      <circle
         fill="#292f33"
         cx="79.360245"
         cy="105.10123"
         r="2.9382904"
         id="circle1474"
         style="stroke-width:2.93829" />
      <path
         fill="#5c913b"
         d="m 106.49323,116.76529 c -7.35749,-1.72772 -14.818954,18.48192 1.80297,36.90207 16.19667,14.9456 38.61171,12.23441 49.91618,7.47526 -22.36701,-10.56652 -28.66239,-38.965 -51.71915,-44.37733 z"
         id="path1472"
         style="fill:#748796;fill-opacity:1;stroke-width:2.93829"
         sodipodi:nodetypes="cccc" />
    </g>
  </g>
</svg>
