<?xml version="1.0" encoding="UTF-8" standalone="no"?>
<svg
   sodipodi:docname="cockatiel.svg"
   inkscape:version="1.3 (0e150ed6c4, 2023-07-21)"
   id="svg893"
   version="1.1"
   viewBox="0 0 62.036874 62.036875"
   height="62.036873mm"
   width="62.036873mm"
   xmlns:inkscape="http://www.inkscape.org/namespaces/inkscape"
   xmlns:sodipodi="http://sodipodi.sourceforge.net/DTD/sodipodi-0.dtd"
   xmlns="http://www.w3.org/2000/svg"
   xmlns:svg="http://www.w3.org/2000/svg"
   xmlns:rdf="http://www.w3.org/1999/02/22-rdf-syntax-ns#"
   xmlns:cc="http://creativecommons.org/ns#"
   xmlns:dc="http://purl.org/dc/elements/1.1/">
  <defs
     id="defs887">
    <linearGradient
       id="linearGradient2155"
       inkscape:swatch="solid">
      <stop
         id="stop2153"
         offset="0"
         style="stop-color:#99aab5;stop-opacity:1;" />
    </linearGradient>
    <clipPath
       clipPathUnits="userSpaceOnUse"
       id="clipPath1538-0">
      <path
         style="stroke-width:3.31679"
         id="path1540-7"
         d="m 156.69407,175.38205 c -0.0464,1.65508 -6.35497,2.7264 -18.54747,-11.93711 -9.70824,10.24887 -24.45799,10.554 -39.207739,4.71647 C 82.358241,161.59748 71.134237,145.19597 73.396287,121.806 74.6633,108.69142 56.056125,109.90868 56.543694,92.28991 56.911856,79.03935 68.195566,73.931489 77.684892,74.193519 c 15.721568,0.434501 22.620488,17.55575 26.706768,21.761442 21.53921,22.182669 52.4384,74.528199 52.30241,79.427089 z"
         fill="#77b255" />
    </clipPath>
    <clipPath
       clipPathUnits="userSpaceOnUse"
       id="clipPath1538-5">
      <path
         style="stroke-width:3.31679"
         id="path1540-6"
         d="m 156.69407,175.38205 c -0.0464,1.65508 -6.35497,2.7264 -18.54747,-11.93711 -9.70824,10.24887 -24.45799,10.554 -39.207739,4.71647 C 82.358241,161.59748 71.134237,145.19597 73.396287,121.806 74.6633,108.69142 56.056125,109.90868 56.543694,92.28991 56.911856,79.03935 68.195566,73.931489 77.684892,74.193519 c 15.721568,0.434501 22.620488,17.55575 26.706768,21.761442 21.53921,22.182669 52.4384,74.528199 52.30241,79.427089 z"
         fill="#77b255" />
    </clipPath>
    <clipPath
       id="clipPath1627"
       clipPathUnits="userSpaceOnUse">
      <circle
         transform="translate(0.00332,-0.00332)"
         style="fill:#f9f9f9;fill-opacity:1;fill-rule:evenodd;stroke-width:0.302001"
         id="circle1629"
         cx="77.775436"
         cy="91.53981"
         r="22.880037"
         clip-path="url(#clipPath1538-5)" />
    </clipPath>
    <clipPath
       id="clipPath2097"
       clipPathUnits="userSpaceOnUse">
      <path
         style="fill:#66757f;fill-opacity:1;stroke-width:3.31681"
         id="path2099"
         d="m 19.076491,259.16264 c -1.104496,1.23846 -6.612503,-1.99396 -6.448649,-21.06427 -14.0314284,1.6159 -25.488564,-7.62721 -32.97793,-21.57735 -8.417864,-15.68313 -6.392022,-35.46298 10.4432417,-51.93301 9.4384103,-9.23545 -5.5526787,-20.25806 6.2001143,-33.44582 8.8400585,-9.91718 20.753452,-6.58132 27.828403,-0.28351 11.721274,10.43429 5.928729,27.98673 6.331614,33.83499 2.11458,30.83753 -8.108613,90.80239 -11.376794,94.46897 z"
         fill="#77b255" />
    </clipPath>
  </defs>
  <sodipodi:namedview
     inkscape:window-maximized="1"
     inkscape:window-y="0"
     inkscape:window-x="0"
     inkscape:window-height="831"
     inkscape:window-width="1440"
     showguides="false"
     showgrid="false"
     inkscape:document-rotation="0"
     inkscape:current-layer="g4093"
     inkscape:document-units="mm"
     inkscape:cy="119.05614"
     inkscape:cx="235.72518"
     inkscape:zoom="1.6756801"
     inkscape:pageshadow="2"
     inkscape:pageopacity="0.0"
     borderopacity="1.0"
     bordercolor="#666666"
     pagecolor="#ffffff"
     id="base"
     inkscape:showpageshadow="2"
     inkscape:pagecheckerboard="0"
     inkscape:deskcolor="#d1d1d1" />
  <metadata
     id="metadata890">
    <rdf:RDF>
      <cc:Work
         rdf:about="">
        <dc:format>image/svg+xml</dc:format>
        <dc:type
           rdf:resource="http://purl.org/dc/dcmitype/StillImage" />
        <dc:title />
      </cc:Work>
    </rdf:RDF>
  </metadata>
  <g
     id="layer1"
     inkscape:groupmode="layer"
     inkscape:label="Layer 1"
     transform="translate(-43.905723,-72.815785)">
    <g
       inkscape:export-ydpi="110.5214"
       inkscape:export-xdpi="110.5214"
       inkscape:export-filename="F:\My Art\SVG &amp; SALES\MOREmoji\SET 3\png\cockatiel.png"
       transform="translate(-10.583333,6.4255952)"
       id="g4093">
      <path
         fill="#f4900c"
         d="m 66.076003,117.32911 c 1.42545,0.76249 6.432237,-2.38024 7.354983,-5.58033 0.922747,-3.2001 -1.722348,-3.56954 -4.861711,-2.09179 -3.139364,1.47774 -3.724726,7.01253 -2.493272,7.67212 z"
         id="path1462"
         style="stroke-width:1.68692" />
      <path
         id="path1"
         style="fill:#99aab5;fill-opacity:1;stroke-width:2.42876"
         d="m 77.763459,121.17377 h 24.428391 c 0.15095,0 0.2999,-0.007 0.44681,-0.0226 0.1469,-0.0148 0.29182,-0.0369 0.43398,-0.0658 0.14215,-0.0289 0.2815,-0.0649 0.41818,-0.10722 0.13668,-0.0423 0.27062,-0.0911 0.4011,-0.14608 0.13047,-0.055 0.25745,-0.1163 0.38102,-0.18325 0.12356,-0.067 0.24373,-0.13966 0.35966,-0.21785 0.11593,-0.0782 0.22774,-0.16161 0.33531,-0.25031 0.10757,-0.0887 0.21077,-0.18257 0.30926,-0.28107 0.0985,-0.0985 0.19237,-0.20169 0.28107,-0.30926 0.0887,-0.10756 0.17212,-0.21938 0.25031,-0.33531 0.0782,-0.11592 0.15089,-0.2361 0.21784,-0.35966 0.067,-0.12356 0.12825,-0.25054 0.18325,-0.38102 0.0551,-0.13048 0.10375,-0.26442 0.14609,-0.4011 0.0423,-0.13667 0.0783,-0.27603 0.10722,-0.41818 0.0289,-0.14215 0.0509,-0.28707 0.0658,-0.43398 0.0148,-0.14691 0.0226,-0.29586 0.0226,-0.44681 v -8.25044 c -0.62798,-0.68597 -1.31656,-1.36022 -2.09433,-2.0153 -7.668564,-6.45899 -9.222073,-13.580934 -20.734379,-13.899101 -6.948679,-0.191872 -15.634132,1.225375 -15.903724,10.928261 -0.324549,11.72797 10.238061,10.9378 9.944527,17.5961 z" />
      <path
         fill="#ffac33"
         d="m 70.790952,100.80065 c -4.310088,1.68692 -7.216656,5.69841 -7.243647,10.26997 -0.02699,4.55301 2.056359,7.46127 4.375878,6.82699 0.634282,-0.17376 -0.511138,-3.24226 1.433885,-7.37353 0.961546,-2.03613 2.19806,-2.27736 2.825595,-2.21494 0.629223,0.0607 0.747307,-8.345209 -1.391711,-7.50849 z"
         id="path1464"
         style="stroke-width:1.68692" />
      <path
         sodipodi:nodetypes="csccc"
         fill="#bf6952"
         d="m 82.785585,76.455561 c 0,0 -25.392178,22.327757 -12.086057,36.193209 5.292989,5.51548 6.443245,-10.68653 6.443245,-10.68653 0,0 -0.103913,-19.392673 5.642811,-25.50668 z"
         id="path1867"
         style="fill:#ffdc5e;fill-opacity:1;stroke-width:3.79507" />
      <path
         style="fill:#ffdc5e;fill-opacity:1;stroke-width:3.79507"
         id="path1867-8"
         d="m 95.218381,73.374734 c 0,0 -31.49739,12.296593 -23.735982,29.876816 3.087365,6.99315 9.709678,-7.83834 9.709678,-7.83834 0,0 6.535032,-18.258693 14.026312,-22.038482 z"
         fill="#bf6952"
         sodipodi:nodetypes="csccc" />
      <path
         sodipodi:nodetypes="csccc"
         fill="#bf6952"
         d="m 104.26841,74.004613 c 0,0 -22.428909,5.133197 -23.311208,15.270112 -0.350971,4.032328 8.172831,-3.82161 8.172831,-3.82161 0,0 9.538002,-9.75453 15.138377,-11.448506 z"
         id="path1867-8-3"
         style="fill:#ffdc5e;fill-opacity:1;stroke-width:2.22346" />
      <path
         sodipodi:nodetypes="csccc"
         fill="#bf6952"
         d="m 100.18556,82.494311 c 0,0 -17.08605,-1.097212 -17.286314,8.631526 -0.07967,3.869949 6.133291,-1.5193 6.133291,-1.5193 0,0 6.906324,-6.980732 11.153023,-7.112231 z"
         id="path1867-8-2"
         style="fill:#ffdc5e;fill-opacity:1;stroke-width:1.92166" />
      <ellipse
         style="fill:#ffdc5e;fill-opacity:1;fill-rule:evenodd;stroke-width:0.349314"
         id="path1499"
         cx="12.464235"
         cy="137.38036"
         clip-path="url(#clipPath2097)"
         rx="24.840527"
         ry="28.194771"
         transform="matrix(0.56111791,-0.4704846,0.47298959,0.55900797,6.9655067,27.645598)" />
      <circle
         style="fill:#f26522;fill-opacity:1;fill-rule:evenodd;stroke-width:0.256581"
         id="path1556"
         cx="83.079453"
         cy="111.92449"
         r="6.7810597" />
      <path
         fill="#5c913b"
         d="m 82.446406,119.52311 c -1.918719,0 -3.664998,-0.45903 -4.799229,-1.09294 -0.602332,-0.33759 -0.816063,-1.10023 -0.480895,-1.70256 0.340026,-0.60233 1.102658,-0.81606 1.702562,-0.4809 1.615127,0.90594 5.843594,1.53013 8.777537,-1.02736 0.517329,-0.45418 1.309103,-0.40074 1.763282,0.12144 0.454178,0.51976 0.398314,1.31153 -0.121439,1.76328 -2.03044,1.77056 -4.558783,2.41904 -6.841818,2.41904 z"
         id="path1476"
         style="fill:#d14a15;fill-opacity:1;stroke-width:2.42876" />
      <circle
         fill="#292f33"
         cx="75.83046"
         cy="101.89274"
         r="2.900974"
         id="circle1474"
         style="stroke-width:2.90097" />
      <circle
         style="fill:#ececec;stroke-width:1.62634;stroke-linecap:round"
         id="path2"
         cx="74.950394"
         cy="102.18945"
         r="1.1098171" />
    </g>
  </g>
</svg>
